<svg width="24" height="24" viewBox="0 0 156 100" fill="none" xmlns="http://www.w3.org/2000/svg">
<path d="M85.3547 85.3548C78.3622 92.3473 69.4531 97.1094 59.7541 99.0386C50.0551 100.968 40.0019 99.9777 30.8656 96.1933C21.7294 92.409 13.9205 86.0004 8.42646 77.778C2.93243 69.5556 6.09052e-07 59.8887 0 49.9997C-6.09052e-07 40.1107 2.93243 30.4438 8.42646 22.2214C13.9205 13.999 21.7294 7.59038 30.8656 3.80602C40.0018 0.0216652 50.0551 -0.968496 59.7541 0.960751C69.4531 2.89 78.3622 7.652 85.3547 14.6446L49.9996 49.9997L85.3547 85.3548Z" fill="#05A5B4"/>
<path d="M155.71 14.6446C151.067 10.0017 145.555 6.31877 139.489 3.80605C133.423 1.29334 126.921 5.9548e-05 120.355 6.10352e-05C113.789 6.25223e-05 107.287 1.29334 101.221 3.80606C95.1548 6.31878 89.6429 10.0017 85 14.6446L120.355 49.9997L155.71 14.6446Z" fill="#05A5B4"/>
<path d="M85 85.3554C89.6429 89.9983 95.1548 93.6812 101.221 96.194C107.287 98.7067 113.789 100 120.355 100C126.921 100 133.423 98.7067 139.489 96.194C145.555 93.6812 151.067 89.9983 155.71 85.3554L120.355 50.0003L85 85.3554Z" fill="#05A5B4"/>
</svg>
